<?xml version="1.0" standalone="no"?>
<!DOCTYPE svg PUBLIC "-//W3C//DTD SVG 20010904//EN"
 "http://www.w3.org/TR/2001/REC-SVG-20010904/DTD/svg10.dtd">
<svg version="1.0" xmlns="http://www.w3.org/2000/svg"
 width="577.000000pt" height="433.000000pt" viewBox="0 0 577.000000 433.000000"
 preserveAspectRatio="xMidYMid meet">

<g transform="translate(0.000000,433.000000) scale(0.100000,-0.100000)"
fill="#000000" stroke="none">
<path d="M2857 3519 c-11 -154 -9 -209 8 -209 12 0 15 14 15 66 l0 65 33 -3
c29 -3 35 -10 61 -65 20 -44 35 -63 48 -63 23 0 23 0 -11 68 l-29 58 21 10
c52 22 57 113 8 138 -14 8 -53 17 -87 21 l-61 7 -6 -93z m138 41 c20 -17 19
-59 -2 -82 -11 -12 -30 -18 -60 -18 l-43 0 0 61 0 62 45 -5 c25 -3 52 -11 60
-18z"/>
<path d="M2488 3550 c-65 -35 -88 -92 -68 -167 15 -52 65 -108 105 -115 67
-13 145 34 159 95 10 44 -18 33 -44 -18 -20 -39 -73 -58 -114 -41 -44 18 -69
58 -74 120 -4 48 -1 57 21 80 14 14 37 28 51 32 27 7 86 -12 86 -27 0 -5 9 -9
20 -9 26 0 25 12 -4 39 -34 32 -92 36 -138 11z"/>
<path d="M3318 3468 c-138 -165 -149 -181 -136 -190 9 -5 22 2 40 24 l28 32
57 -20 c57 -19 58 -20 61 -61 2 -24 9 -44 18 -47 12 -5 14 18 14 148 0 131 -2
155 -16 160 -9 3 -17 6 -19 6 -2 0 -23 -24 -47 -52z m52 -77 l0 -70 -32 11
c-18 5 -41 12 -51 15 -21 7 -21 6 23 65 49 66 60 63 60 -21z"/>
<path d="M2125 3399 c-44 -27 -84 -50 -89 -52 -5 -2 -6 -9 -2 -16 6 -9 16 -7
42 9 20 11 37 20 39 20 2 0 33 -49 70 -110 47 -79 70 -107 81 -103 12 4 11 11
-7 42 -49 80 -109 186 -109 192 0 3 16 14 35 25 19 10 35 22 35 26 0 20 -23
12 -95 -33z"/>
<path d="M3603 3252 c-60 -86 -79 -120 -71 -129 8 -9 26 10 77 78 l66 91 3
-141 c2 -104 6 -141 15 -141 7 0 34 30 61 68 120 164 117 159 103 170 -11 9
-27 -8 -77 -78 -34 -50 -65 -90 -67 -90 -3 0 -4 60 -2 133 3 122 -1 158 -19
156 -4 0 -44 -53 -89 -117z"/>
<path d="M1837 3193 c-14 -13 -6 -42 34 -133 22 -50 39 -94 36 -96 -3 -3 -53
7 -112 22 -89 22 -109 24 -116 13 -5 -8 -8 -17 -6 -20 1 -4 38 -37 82 -74 44
-37 92 -78 107 -90 26 -23 38 -23 38 -1 0 7 -34 41 -76 76 -42 35 -72 66 -67
67 5 2 48 -5 94 -16 50 -12 88 -16 93 -11 8 8 -2 41 -62 190 -3 8 18 -5 47
-30 125 -105 118 -101 130 -86 9 11 -4 26 -61 72 -40 32 -89 73 -108 91 -37
34 -42 37 -53 26z"/>
<path d="M3918 2977 c-59 -45 -107 -86 -107 -92 0 -14 97 -135 109 -135 18 0
10 18 -32 71 l-41 53 38 33 c21 18 41 33 44 33 3 0 22 -22 41 -50 19 -27 38
-49 42 -50 20 -1 14 22 -17 61 -19 24 -35 49 -35 54 0 6 16 23 36 39 l36 29
27 -34 c52 -67 68 -82 74 -72 6 10 -90 144 -102 142 -3 0 -54 -37 -113 -82z"/>
<path d="M2770 3004 c-191 -38 -334 -108 -469 -229 -39 -35 -121 -139 -121
-153 0 -6 -4 -12 -9 -14 -17 -6 -78 -144 -101 -228 -33 -120 -33 -309 -1 -430
38 -139 140 -312 232 -395 111 -99 239 -170 369 -206 122 -34 309 -34 430 0
295 83 507 292 596 588 23 76 27 107 27 223 1 112 -3 150 -23 220 -100 367
-412 614 -790 625 -63 2 -126 1 -140 -1z m285 -282 c13 -28 19 -28 33 3 6 14
15 25 20 25 4 0 24 -17 43 -37 l34 -38 -38 35 -37 34 4 -44 c2 -25 1 -34 -1
-20 -6 35 -20 46 -28 21 -6 -21 21 -75 35 -66 4 3 11 -17 14 -43 15 -111 7
-102 101 -102 45 0 97 3 114 6 27 6 30 9 19 23 -10 13 -8 12 8 -1 12 -11 37
-18 62 -18 l42 0 0 -100 0 -100 -70 0 -70 0 0 45 0 45 -95 0 -95 0 0 -405 0
-405 -85 0 -85 0 0 405 0 405 -235 0 -235 0 0 -149 c0 -118 -3 -151 -15 -161
-18 -15 -35 -5 -35 21 0 12 7 19 20 19 19 0 20 7 20 135 l0 135 -106 0 -107 0
44 49 c43 47 46 49 101 50 31 1 60 6 63 11 3 6 12 10 18 10 7 0 6 -4 -3 -10
-10 -6 69 -10 233 -10 l247 0 0 23 c0 12 9 67 20 121 11 55 18 101 16 103 -2
2 -31 -9 -65 -26 -33 -17 -64 -31 -68 -31 -4 1 21 16 57 35 73 39 91 40 105 7z
m-175 -46 c0 -2 -7 -7 -16 -10 -8 -3 -12 -2 -9 4 6 10 25 14 25 6z m383 -65
c-2 -3 -20 12 -41 34 l-37 39 41 -35 c22 -19 39 -36 37 -38z m-463 24 c-25
-13 -49 -24 -55 -24 -5 0 10 11 35 24 25 13 50 24 55 24 6 0 -10 -11 -35 -24z
m-90 -39 c0 -2 -7 -7 -16 -10 -8 -3 -12 -2 -9 4 6 10 25 14 25 6z m610 -31
c19 -19 32 -35 29 -35 -3 0 -20 16 -39 35 -19 19 -32 35 -29 35 3 0 20 -16 39
-35z m-700 -15 c-19 -11 -39 -19 -45 -19 -5 0 6 8 25 19 19 11 40 19 45 19 6
0 -6 -8 -25 -19z"/>
<path d="M3037 2710 c-21 -65 -13 -94 12 -46 10 17 10 29 3 42 -9 16 -12 16
-15 4z"/>
<path d="M3047 2645 c-17 -23 -17 -26 -1 -50 20 -31 24 -31 47 0 17 24 17 26
0 50 -22 30 -24 30 -46 0z"/>
<path d="M3008 2558 c-3 -24 -4 -44 -3 -46 1 -1 14 7 28 18 25 20 26 22 11 46
-23 34 -31 30 -36 -18z"/>
<path d="M3096 2578 c-18 -20 -17 -21 12 -51 l30 -30 -9 48 c-5 27 -10 50 -12
51 -2 2 -11 -6 -21 -18z"/>
<path d="M3034 2515 l-29 -25 59 0 59 0 -23 25 c-29 31 -30 31 -66 0z"/>
<path d="M2348 2437 l-27 -32 51 -3 c27 -2 53 0 56 3 3 3 -7 19 -24 35 l-29
29 -27 -32z"/>
<path d="M2424 2441 c31 -33 42 -32 69 4 l18 25 -57 0 -58 0 28 -29z"/>
<path d="M2500 2435 l-34 -35 63 0 62 0 -27 35 c-14 19 -27 35 -28 35 -1 0
-17 -16 -36 -35z"/>
<path d="M2578 2438 l32 -33 32 33 33 32 -65 0 -65 0 33 -32z"/>
<path d="M2656 2439 c-15 -17 -26 -33 -23 -35 3 -3 30 -4 62 -2 l56 3 -34 33
-33 32 -28 -31z"/>
<path d="M2725 2446 c24 -36 40 -38 71 -5 l28 29 -57 0 -57 0 15 -24z"/>
<path d="M2892 2435 c35 -33 42 -35 103 -35 61 0 68 2 103 35 l37 34 -57 1
c-32 0 -58 -4 -58 -10 0 -5 3 -10 8 -10 4 0 13 -10 21 -22 10 -17 4 -14 -21 9
l-34 33 -33 -33 c-23 -22 -29 -25 -20 -9 8 12 17 22 21 22 5 0 8 5 8 10 0 6
-26 10 -57 10 l-58 -1 37 -34z"/>
<path d="M3118 2437 l-27 -32 30 -3 c16 -2 43 -2 60 0 l30 3 -33 32 -33 32
-27 -32z"/>
<path d="M3194 2441 c31 -33 42 -32 69 4 l18 25 -57 0 -58 0 28 -29z"/>
<path d="M3270 2435 l-34 -35 52 0 51 0 -1 35 c-1 19 -5 35 -10 35 -5 0 -6 -4
-3 -10 3 -5 2 -10 -4 -10 -5 0 -11 5 -13 10 -2 6 -19 -5 -38 -25z"/>
<path d="M2805 2430 l-29 -30 64 0 64 0 -29 30 c-16 17 -32 30 -35 30 -3 0
-19 -13 -35 -30z"/>
<path d="M3038 2341 l27 -40 27 32 c15 18 28 35 28 40 0 4 -25 7 -55 7 l-55 0
28 -39z"/>
<path d="M3000 2285 l0 -79 29 40 c16 21 26 43 22 49 -4 5 -17 23 -29 39 l-22
29 0 -78z"/>
<path d="M3107 2323 l-29 -42 29 -37 28 -38 3 42 c2 24 2 59 0 80 l-3 37 -28
-42z"/>
<path d="M3040 2233 c-14 -21 -26 -41 -28 -45 -2 -3 10 -25 27 -48 l29 -41 31
44 c33 48 34 41 -16 105 l-18 22 -25 -37z"/>
<path d="M3106 2129 l-28 -40 28 -41 29 -42 3 42 c2 23 2 60 0 81 l-3 40 -29
-40z"/>
<path d="M3000 2085 l0 -79 29 40 c16 21 26 43 22 49 -4 5 -17 23 -29 39 l-22
29 0 -78z"/>
<path d="M3036 2030 c-14 -22 -26 -43 -26 -47 0 -5 14 -24 29 -43 l29 -34 21
24 c42 49 42 55 11 99 -17 22 -32 41 -34 41 -2 0 -15 -18 -30 -40z"/>
<path d="M3000 1885 l0 -79 29 40 c16 21 26 43 22 49 -4 5 -17 23 -29 39 l-22
29 0 -78z"/>
<path d="M3106 1927 l-29 -37 29 -42 29 -42 3 42 c2 24 2 59 0 80 l-3 37 -29
-38z"/>
<path d="M3038 1829 c-16 -21 -28 -43 -28 -47 1 -11 58 -78 62 -72 2 3 16 21
31 41 l26 37 -29 41 c-17 23 -31 41 -33 41 -1 -1 -14 -19 -29 -41z"/>
<path d="M3107 1732 l-27 -42 27 -42 28 -42 3 42 c2 23 2 61 0 84 l-3 42 -28
-42z"/>
<path d="M3000 1685 l0 -78 22 29 c12 16 25 34 30 40 5 7 -4 26 -22 49 l-30
38 0 -78z"/>
<path d="M3043 1637 c-13 -18 -23 -36 -23 -40 0 -4 23 -7 50 -7 28 0 50 2 50
5 0 8 -44 75 -50 75 -3 0 -15 -15 -27 -33z"/>
<path d="M1563 2738 c-61 -16 -102 -101 -83 -170 16 -58 92 -108 163 -108 36
0 87 30 107 62 22 37 27 107 8 127 -11 11 -9 12 11 6 15 -5 26 -3 32 6 5 9
-11 20 -64 41 -39 15 -72 26 -73 25 -13 -13 -40 -108 -32 -113 12 -7 11 -8 30
41 l16 39 36 -36 c40 -40 43 -53 21 -104 -30 -71 -130 -80 -197 -16 -40 37
-40 102 1 143 16 16 36 29 44 29 16 0 31 27 19 33 -4 2 -21 0 -39 -5z"/>
<path d="M4162 2680 c-18 -17 -22 -32 -22 -83 0 -72 -18 -107 -55 -107 -46 0
-72 74 -40 116 31 41 11 60 -25 22 -24 -26 -26 -77 -5 -118 28 -55 89 -67 130
-25 22 21 25 33 25 95 0 64 2 71 23 79 47 19 86 -36 61 -84 -18 -35 -18 -45 2
-45 24 0 46 63 33 97 -26 69 -84 93 -127 53z"/>
<path d="M1540 2116 c-27 -33 18 -72 48 -42 13 13 14 20 6 34 -15 23 -38 26
-54 8z"/>
<path d="M4170 2111 c-7 -15 -6 -24 6 -36 19 -18 33 -16 48 7 7 12 6 21 -3 32
-18 22 -38 20 -51 -3z"/>
<path d="M1623 1742 c-48 -15 -52 -19 -46 -42 11 -46 22 -57 20 -20 -2 34 0
36 46 49 26 8 47 18 47 23 0 10 -3 10 -67 -10z"/>
<path d="M4100 1715 c-7 -9 -11 -17 -9 -20 3 -2 10 5 17 15 14 24 10 26 -8 5z"/>
<path d="M4130 1689 c-7 -12 -18 -18 -26 -15 -8 3 -14 1 -14 -4 0 -18 35 -10
48 10 7 11 17 20 22 20 14 0 12 -33 -2 -50 -11 -12 -10 -12 5 -1 24 19 23 61
-3 61 -10 0 -24 -9 -30 -21z"/>
<path d="M1715 1650 c-3 -5 -1 -10 4 -10 6 0 11 5 11 10 0 6 -2 10 -4 10 -3 0
-8 -4 -11 -10z"/>
<path d="M1643 1628 c-18 -6 -33 -15 -33 -19 0 -13 11 -10 50 11 38 21 33 24
-17 8z"/>
<path d="M4065 1630 c-3 -5 -13 -7 -23 -4 -16 5 -16 5 0 -9 10 -8 16 -16 14
-18 -3 -2 5 -5 17 -6 12 -1 34 -4 50 -8 18 -5 27 -3 27 4 0 7 -4 10 -9 7 -16
-10 -73 15 -67 30 6 16 0 19 -9 4z"/>
<path d="M1705 1590 c3 -4 -14 -15 -36 -24 -23 -9 -39 -19 -37 -22 3 -2 21 2
40 10 27 12 38 12 47 3 10 -9 11 -8 6 6 -8 19 19 25 28 7 3 -6 4 -5 3 2 -1 6
-14 15 -29 19 -15 4 -25 4 -22 -1z"/>
<path d="M4024 1536 c-4 -18 -11 -22 -27 -18 -31 7 -20 -2 41 -32 28 -14 52
-22 52 -17 0 5 -13 14 -30 21 -18 7 -30 20 -30 31 0 27 16 32 51 14 17 -9 33
-14 36 -11 6 6 -52 36 -71 36 -9 0 -18 -11 -22 -24z"/>
<path d="M1730 1528 c0 -9 -12 -23 -27 -30 -15 -7 -28 -21 -29 -31 -1 -9 0
-12 2 -5 3 8 18 20 35 27 26 12 33 12 41 0 8 -11 9 -10 4 3 -3 10 2 22 12 28
15 10 15 11 -2 5 -11 -3 -23 0 -28 7 -6 10 -8 9 -8 -4z"/>
<path d="M1795 1470 c-3 -5 -1 -10 4 -10 6 0 11 5 11 10 0 6 -2 10 -4 10 -3 0
-8 -4 -11 -10z"/>
<path d="M3991 1469 c0 -9 -8 -22 -16 -29 -20 -17 -19 -46 1 -54 14 -5 15 -4
4 9 -15 18 -6 45 16 45 13 0 15 -6 10 -31 -4 -22 -1 -36 14 -51 19 -21 20 -21
40 -3 11 10 20 23 20 29 0 6 -7 0 -16 -12 -19 -27 -34 -28 -34 -3 0 22 25 45
40 36 5 -3 10 -1 10 4 0 20 -37 11 -53 -11 -15 -22 -16 -22 -10 15 3 23 2 37
-5 37 -6 0 -13 8 -15 18 -4 14 -5 14 -6 1z"/>
<path d="M1738 1437 c-21 -12 -38 -26 -38 -30 0 -4 18 3 40 15 22 13 40 26 40
31 0 9 1 10 -42 -16z"/>
<path d="M1761 1389 c-18 -11 -31 -23 -28 -26 6 -5 77 34 77 43 0 9 -16 3 -49
-17z"/>
<path d="M1817 1371 c3 -13 -5 -24 -29 -39 -18 -12 -27 -22 -20 -22 39 0 80
58 53 74 -5 4 -7 -2 -4 -13z"/>
<path d="M3895 1380 c3 -5 8 -10 11 -10 2 0 4 5 4 10 0 6 -5 10 -11 10 -5 0
-7 -4 -4 -10z"/>
<path d="M3940 1349 c43 -34 67 -42 30 -9 -19 16 -39 30 -45 30 -5 0 1 -9 15
-21z"/>
<path d="M3882 1308 c-28 -28 -7 -78 33 -78 25 0 45 18 44 40 0 9 -4 6 -9 -7
-6 -13 -18 -23 -30 -23 -25 0 -25 5 0 37 11 14 17 29 14 34 -8 13 -38 11 -52
-3z m33 -8 c7 -12 -12 -40 -26 -40 -10 0 -12 34 -2 43 9 10 21 9 28 -3z"/>
<path d="M1833 1293 c-9 -23 34 -58 53 -42 7 6 19 7 26 3 6 -4 2 7 -11 24 -24
35 -58 42 -68 15z m55 -16 c2 -11 -3 -17 -16 -17 -20 0 -36 23 -24 34 11 12
37 1 40 -17z"/>
<path d="M1791 1269 c-21 -9 -22 -11 -9 -31 22 -33 45 -45 59 -31 9 9 7 19 -7
41 -16 25 -23 28 -43 21z m36 -29 c8 -13 9 -21 2 -25 -13 -8 -39 13 -39 31 0
21 23 17 37 -6z"/>
<path d="M3797 1262 c-4 -5 2 -17 13 -27 20 -18 20 -18 -2 -42 l-22 -23 -23
22 c-43 40 -23 2 22 -42 42 -42 64 -48 28 -8 -15 17 -15 20 8 44 l24 25 18
-22 c9 -12 21 -19 24 -15 4 4 -14 27 -39 52 -25 26 -48 42 -51 36z"/>
<path d="M1986 1214 c-3 -9 -6 -24 -6 -33 0 -10 -9 -30 -20 -44 -29 -37 -24
-43 11 -13 17 14 41 26 54 26 13 0 27 5 30 10 8 13 -7 13 -40 0 l-27 -10 7 40
c7 40 2 53 -9 24z"/>
<path d="M3700 1109 c0 -6 5 -19 11 -31 15 -27 3 -35 -20 -14 -29 26 -42 16
-25 -19 9 -21 12 -23 8 -7 -5 21 -4 23 14 13 12 -6 24 -16 27 -21 4 -6 10 -8
15 -5 5 3 2 26 -7 50 -14 44 -23 56 -23 34z"/>
<path d="M2010 1085 c-5 -14 -7 -32 -4 -40 8 -21 51 -30 70 -14 18 15 15 71
-4 75 -7 1 -8 0 -2 -3 16 -7 12 -49 -6 -64 -11 -9 -20 -10 -32 -3 -24 16 -25
31 -3 53 17 17 18 21 6 21 -9 0 -20 -11 -25 -25z"/>
<path d="M2112 1024 c-18 -28 -21 -39 -11 -50 6 -8 17 -14 23 -14 6 0 4 4 -4
10 -12 8 -12 14 3 46 23 48 18 52 -11 8z"/>
<path d="M3610 1044 c0 -8 64 -54 75 -54 13 0 3 18 -12 23 -10 4 -28 14 -40
23 -13 9 -23 13 -23 8z"/>
<path d="M2180 1012 c0 -5 -9 -18 -21 -30 -11 -13 -19 -28 -17 -34 2 -5 16 8
31 31 15 22 23 41 17 41 -5 0 -10 -4 -10 -8z"/>
<path d="M3545 1007 c-23 -17 -14 -61 15 -77 25 -13 61 3 59 28 -1 16 -2 16
-6 0 -6 -25 -50 -23 -64 3 -14 27 8 53 35 43 17 -7 16 -9 -5 -26 -23 -19 -6
-15 19 5 9 7 9 13 1 23 -14 18 -30 18 -54 1z"/>
<path d="M3460 991 c0 -5 4 -12 9 -15 5 -3 14 -20 20 -37 l11 -31 -55 31 c-30
17 -55 26 -55 20 0 -19 42 -109 51 -109 5 0 0 18 -11 40 -11 21 -20 42 -20 46
0 3 25 -8 55 -25 30 -17 55 -26 55 -21 0 17 -39 98 -50 105 -5 3 -10 2 -10 -4z"/>
<path d="M2207 961 c-25 -42 -21 -62 5 -23 15 24 26 32 39 29 11 -3 19 -1 19
4 0 5 -4 9 -9 9 -5 0 -15 2 -23 5 -8 3 -21 -7 -31 -24z"/>
<path d="M2331 914 c-26 -60 -24 -67 27 -80 31 -9 61 18 43 39 -9 12 -7 16 9
20 37 10 15 56 -35 71 -17 4 -24 -4 -44 -50z m63 30 c26 -10 20 -44 -8 -44
-29 0 -39 12 -30 34 7 17 14 19 38 10z m-23 -54 c36 -20 18 -57 -21 -45 -19 6
-27 35 -13 48 8 9 11 9 34 -3z"/>
<path d="M2446 855 c-18 -43 -11 -60 29 -67 25 -5 29 0 45 55 12 38 2 34 -16
-8 -24 -58 -67 -39 -44 20 16 42 3 42 -14 0z"/>
<path d="M3181 873 c0 -12 -7 -24 -13 -26 -8 -4 -7 -6 3 -6 11 -1 19 -13 23
-36 6 -28 11 -35 29 -34 15 1 17 3 6 6 -21 5 -34 64 -17 75 10 6 8 8 -4 8 -9
0 -19 8 -21 18 -4 13 -5 12 -6 -5z"/>
<path d="M3267 872 c-22 -25 -21 -45 3 -67 17 -15 24 -16 45 -7 30 14 33 51 7
75 -24 22 -35 21 -55 -1z m47 -8 c20 -19 20 -38 2 -53 -29 -24 -64 17 -44 53
11 20 22 20 42 0z"/>
<path d="M2554 838 c-4 -6 4 -19 19 -30 15 -11 27 -24 27 -29 0 -13 -34 -11
-49 4 -11 10 -13 9 -9 -3 3 -8 19 -16 36 -18 26 -3 32 0 32 16 0 11 -12 27
-26 37 -21 13 -24 19 -13 26 9 6 10 9 2 9 -6 0 -15 -5 -19 -12z"/>
<path d="M2590 846 c0 -2 7 -7 16 -10 8 -3 12 -2 9 4 -6 10 -25 14 -25 6z"/>
<path d="M2657 817 c-4 -10 -7 -33 -6 -50 l1 -32 9 33 c12 40 8 79 -4 49z"/>
<path d="M2711 810 c0 -14 -4 -36 -7 -50 -5 -22 -4 -23 6 -7 6 9 9 32 7 50 -3
25 -4 26 -6 7z"/>
<path d="M2736 821 c-3 -5 2 -8 12 -7 14 1 17 -7 16 -41 0 -24 3 -43 8 -43 4
0 8 20 8 44 0 31 -5 46 -16 50 -20 8 -22 8 -28 -3z"/>
<path d="M3034 815 c-8 -21 4 -35 32 -35 25 0 34 -24 12 -33 -8 -3 -6 -6 5 -6
12 -1 17 7 17 24 0 20 -5 25 -24 25 -29 0 -44 19 -25 31 11 7 11 9 1 9 -7 0
-15 -7 -18 -15z"/>
<path d="M2833 813 c-18 -7 -16 -68 2 -83 16 -13 55 -5 55 12 0 7 -5 7 -14 -1
-16 -14 -46 -4 -46 15 0 9 12 14 35 14 36 0 46 15 23 38 -12 12 -33 14 -55 5z
m51 -18 c4 -11 -2 -15 -24 -15 -29 0 -38 9 -23 23 12 12 41 7 47 -8z"/>
<path d="M2937 813 c-15 -15 -5 -35 23 -44 17 -6 30 -16 30 -21 0 -6 -13 -8
-30 -6 -16 3 -30 1 -30 -4 0 -5 15 -8 33 -6 40 4 46 39 8 48 -35 8 -37 28 -4
33 27 4 28 4 2 6 -14 0 -29 -2 -32 -6z"/>
</g>
</svg>
